<mxfile host="Electron" agent="Mozilla/5.0 (Macintosh; Intel Mac OS X 10_15_7) AppleWebKit/537.36 (KHTML, like Gecko) draw.io/25.0.2 Chrome/128.0.6613.186 Electron/32.2.5 Safari/537.36" version="25.0.2" pages="2">
  <diagram name="standard" id="hh-86IIguyeyS4wp4lcn">
    <mxGraphModel dx="1912" dy="1369" grid="1" gridSize="10" guides="1" tooltips="1" connect="1" arrows="1" fold="1" page="1" pageScale="1" pageWidth="827" pageHeight="1169" math="0" shadow="0">
      <root>
        <mxCell id="0" />
        <mxCell id="1" parent="0" />
        <mxCell id="bdn8oM7H7s0QGz5xTOm9-15" value="Send chat" style="edgeStyle=orthogonalEdgeStyle;rounded=0;orthogonalLoop=1;jettySize=auto;html=1;exitX=1;exitY=0.5;exitDx=0;exitDy=0;" edge="1" parent="1" source="bdn8oM7H7s0QGz5xTOm9-14" target="bdn8oM7H7s0QGz5xTOm9-16">
          <mxGeometry relative="1" as="geometry">
            <mxPoint x="150" y="570" as="targetPoint" />
          </mxGeometry>
        </mxCell>
        <mxCell id="bdn8oM7H7s0QGz5xTOm9-14" value="" style="rounded=0;whiteSpace=wrap;html=1;" vertex="1" parent="1">
          <mxGeometry x="10" y="518.5" width="70" height="103" as="geometry" />
        </mxCell>
        <mxCell id="bdn8oM7H7s0QGz5xTOm9-8" value="" style="rounded=1;whiteSpace=wrap;html=1;" vertex="1" parent="1">
          <mxGeometry x="620" y="471" width="370" height="200" as="geometry" />
        </mxCell>
        <mxCell id="bdn8oM7H7s0QGz5xTOm9-1" value="" style="outlineConnect=0;dashed=0;verticalLabelPosition=bottom;verticalAlign=top;align=center;html=1;shape=mxgraph.aws3.queue;fillColor=#D9A741;gradientColor=none;" vertex="1" parent="1">
          <mxGeometry x="930" y="451" width="73.5" height="48" as="geometry" />
        </mxCell>
        <mxCell id="bdn8oM7H7s0QGz5xTOm9-9" value="Kafka" style="text;html=1;align=center;verticalAlign=middle;whiteSpace=wrap;rounded=0;fontSize=20;fontStyle=0" vertex="1" parent="1">
          <mxGeometry x="775" y="681" width="60" height="30" as="geometry" />
        </mxCell>
        <mxCell id="bdn8oM7H7s0QGz5xTOm9-10" value="CHAT_TOPIC" style="swimlane;whiteSpace=wrap;html=1;" vertex="1" parent="1">
          <mxGeometry x="650" y="503.5" width="310" height="135" as="geometry" />
        </mxCell>
        <mxCell id="bdn8oM7H7s0QGz5xTOm9-11" value="Partition 1" style="rounded=0;whiteSpace=wrap;html=1;" vertex="1" parent="1">
          <mxGeometry x="680" y="551" width="250" height="40" as="geometry" />
        </mxCell>
        <mxCell id="bdn8oM7H7s0QGz5xTOm9-13" value="Client" style="shape=umlActor;verticalLabelPosition=bottom;verticalAlign=top;html=1;outlineConnect=0;" vertex="1" parent="1">
          <mxGeometry x="30" y="531" width="30" height="60" as="geometry" />
        </mxCell>
        <mxCell id="bdn8oM7H7s0QGz5xTOm9-16" value="Spring App" style="swimlane;whiteSpace=wrap;html=1;" vertex="1" parent="1">
          <mxGeometry x="170" y="470" width="400" height="200" as="geometry" />
        </mxCell>
        <mxCell id="bdn8oM7H7s0QGz5xTOm9-21" style="edgeStyle=orthogonalEdgeStyle;rounded=0;orthogonalLoop=1;jettySize=auto;html=1;exitX=1;exitY=0.5;exitDx=0;exitDy=0;entryX=0;entryY=0.5;entryDx=0;entryDy=0;" edge="1" parent="bdn8oM7H7s0QGz5xTOm9-16" source="bdn8oM7H7s0QGz5xTOm9-17" target="bdn8oM7H7s0QGz5xTOm9-18">
          <mxGeometry relative="1" as="geometry" />
        </mxCell>
        <mxCell id="bdn8oM7H7s0QGz5xTOm9-17" value="ChatController" style="rounded=0;whiteSpace=wrap;html=1;" vertex="1" parent="bdn8oM7H7s0QGz5xTOm9-16">
          <mxGeometry x="10" y="67" width="110" height="67.5" as="geometry" />
        </mxCell>
        <mxCell id="bdn8oM7H7s0QGz5xTOm9-22" style="edgeStyle=orthogonalEdgeStyle;rounded=0;orthogonalLoop=1;jettySize=auto;html=1;exitX=1;exitY=0.5;exitDx=0;exitDy=0;entryX=0;entryY=0.5;entryDx=0;entryDy=0;" edge="1" parent="bdn8oM7H7s0QGz5xTOm9-16" source="bdn8oM7H7s0QGz5xTOm9-18" target="bdn8oM7H7s0QGz5xTOm9-20">
          <mxGeometry relative="1" as="geometry" />
        </mxCell>
        <mxCell id="bdn8oM7H7s0QGz5xTOm9-18" value="ChatService" style="rounded=0;whiteSpace=wrap;html=1;" vertex="1" parent="bdn8oM7H7s0QGz5xTOm9-16">
          <mxGeometry x="140" y="67" width="110" height="67.5" as="geometry" />
        </mxCell>
        <mxCell id="bdn8oM7H7s0QGz5xTOm9-20" value="Producer" style="rounded=0;whiteSpace=wrap;html=1;" vertex="1" parent="bdn8oM7H7s0QGz5xTOm9-16">
          <mxGeometry x="270" y="67" width="110" height="67.5" as="geometry" />
        </mxCell>
        <mxCell id="0GwCWvjjGOGeUL28Unsq-1" style="edgeStyle=orthogonalEdgeStyle;rounded=0;orthogonalLoop=1;jettySize=auto;html=1;exitX=1;exitY=0.5;exitDx=0;exitDy=0;entryX=0;entryY=0.5;entryDx=0;entryDy=0;" edge="1" parent="1" source="bdn8oM7H7s0QGz5xTOm9-20" target="bdn8oM7H7s0QGz5xTOm9-11">
          <mxGeometry relative="1" as="geometry" />
        </mxCell>
        <mxCell id="0GwCWvjjGOGeUL28Unsq-2" value="Publish" style="edgeLabel;html=1;align=center;verticalAlign=middle;resizable=0;points=[];" vertex="1" connectable="0" parent="0GwCWvjjGOGeUL28Unsq-1">
          <mxGeometry x="-0.5238" y="1" relative="1" as="geometry">
            <mxPoint x="9" as="offset" />
          </mxGeometry>
        </mxCell>
        <mxCell id="0GwCWvjjGOGeUL28Unsq-3" value="Spring App" style="swimlane;whiteSpace=wrap;html=1;" vertex="1" parent="1">
          <mxGeometry x="1050" y="471" width="150" height="200" as="geometry" />
        </mxCell>
        <mxCell id="0GwCWvjjGOGeUL28Unsq-5" value="ChatListener" style="rounded=0;whiteSpace=wrap;html=1;" vertex="1" parent="0GwCWvjjGOGeUL28Unsq-3">
          <mxGeometry x="20" y="66.25" width="110" height="67.5" as="geometry" />
        </mxCell>
        <mxCell id="0GwCWvjjGOGeUL28Unsq-9" value="DB" style="shape=cylinder3;whiteSpace=wrap;html=1;boundedLbl=1;backgroundOutline=1;size=15;" vertex="1" parent="1">
          <mxGeometry x="1280" y="531" width="60" height="80" as="geometry" />
        </mxCell>
        <mxCell id="0GwCWvjjGOGeUL28Unsq-10" value="Subscribe" style="edgeStyle=orthogonalEdgeStyle;rounded=0;orthogonalLoop=1;jettySize=auto;html=1;exitX=0;exitY=0.5;exitDx=0;exitDy=0;entryX=1;entryY=0.5;entryDx=0;entryDy=0;" edge="1" parent="1" source="0GwCWvjjGOGeUL28Unsq-5" target="bdn8oM7H7s0QGz5xTOm9-11">
          <mxGeometry relative="1" as="geometry">
            <Array as="points">
              <mxPoint x="1010" y="571" />
              <mxPoint x="1010" y="571" />
            </Array>
          </mxGeometry>
        </mxCell>
        <mxCell id="0GwCWvjjGOGeUL28Unsq-11" style="edgeStyle=orthogonalEdgeStyle;rounded=0;orthogonalLoop=1;jettySize=auto;html=1;exitX=1;exitY=0.5;exitDx=0;exitDy=0;" edge="1" parent="1" source="0GwCWvjjGOGeUL28Unsq-5" target="0GwCWvjjGOGeUL28Unsq-9">
          <mxGeometry relative="1" as="geometry" />
        </mxCell>
        <mxCell id="0GwCWvjjGOGeUL28Unsq-12" value="Insert" style="edgeLabel;html=1;align=center;verticalAlign=middle;resizable=0;points=[];" vertex="1" connectable="0" parent="0GwCWvjjGOGeUL28Unsq-11">
          <mxGeometry x="-0.3" y="4" relative="1" as="geometry">
            <mxPoint x="15" y="3" as="offset" />
          </mxGeometry>
        </mxCell>
      </root>
    </mxGraphModel>
  </diagram>
  <diagram id="CX9z-FLYt1eCuYOmoGLN" name="distribution_consumer">
    <mxGraphModel dx="2390" dy="1712" grid="1" gridSize="10" guides="1" tooltips="1" connect="1" arrows="1" fold="1" page="1" pageScale="1" pageWidth="827" pageHeight="1169" math="0" shadow="0">
      <root>
        <mxCell id="0" />
        <mxCell id="1" parent="0" />
        <mxCell id="CrVIT18Y8l8NqVp4mQhL-1" value="Send chat" style="edgeStyle=orthogonalEdgeStyle;rounded=0;orthogonalLoop=1;jettySize=auto;html=1;exitX=1;exitY=0.5;exitDx=0;exitDy=0;" edge="1" parent="1" source="CrVIT18Y8l8NqVp4mQhL-2">
          <mxGeometry relative="1" as="geometry">
            <mxPoint x="160" y="580" as="targetPoint" />
          </mxGeometry>
        </mxCell>
        <mxCell id="CrVIT18Y8l8NqVp4mQhL-2" value="" style="rounded=0;whiteSpace=wrap;html=1;" vertex="1" parent="1">
          <mxGeometry x="10" y="528.5" width="70" height="103" as="geometry" />
        </mxCell>
        <mxCell id="CrVIT18Y8l8NqVp4mQhL-3" value="" style="rounded=1;whiteSpace=wrap;html=1;" vertex="1" parent="1">
          <mxGeometry x="620" y="471" width="370" height="200" as="geometry" />
        </mxCell>
        <mxCell id="CrVIT18Y8l8NqVp4mQhL-4" value="" style="outlineConnect=0;dashed=0;verticalLabelPosition=bottom;verticalAlign=top;align=center;html=1;shape=mxgraph.aws3.queue;fillColor=#D9A741;gradientColor=none;" vertex="1" parent="1">
          <mxGeometry x="930" y="451" width="73.5" height="48" as="geometry" />
        </mxCell>
        <mxCell id="CrVIT18Y8l8NqVp4mQhL-5" value="Kafka" style="text;html=1;align=center;verticalAlign=middle;whiteSpace=wrap;rounded=0;fontSize=20;fontStyle=0" vertex="1" parent="1">
          <mxGeometry x="775" y="681" width="60" height="30" as="geometry" />
        </mxCell>
        <mxCell id="CrVIT18Y8l8NqVp4mQhL-6" value="CHAT_TOPIC" style="swimlane;whiteSpace=wrap;html=1;" vertex="1" parent="1">
          <mxGeometry x="650" y="503.5" width="310" height="135" as="geometry" />
        </mxCell>
        <mxCell id="CrVIT18Y8l8NqVp4mQhL-7" value="Partition 1" style="rounded=0;whiteSpace=wrap;html=1;" vertex="1" parent="1">
          <mxGeometry x="680" y="537" width="250" height="40" as="geometry" />
        </mxCell>
        <mxCell id="CrVIT18Y8l8NqVp4mQhL-8" value="Client" style="shape=umlActor;verticalLabelPosition=bottom;verticalAlign=top;html=1;outlineConnect=0;" vertex="1" parent="1">
          <mxGeometry x="30" y="541" width="30" height="60" as="geometry" />
        </mxCell>
        <mxCell id="CrVIT18Y8l8NqVp4mQhL-9" value="Spring App" style="swimlane;whiteSpace=wrap;html=1;" vertex="1" parent="1">
          <mxGeometry x="160" y="473" width="400" height="200" as="geometry" />
        </mxCell>
        <mxCell id="CrVIT18Y8l8NqVp4mQhL-10" style="edgeStyle=orthogonalEdgeStyle;rounded=0;orthogonalLoop=1;jettySize=auto;html=1;exitX=1;exitY=0.5;exitDx=0;exitDy=0;entryX=0;entryY=0.5;entryDx=0;entryDy=0;" edge="1" parent="CrVIT18Y8l8NqVp4mQhL-9" source="CrVIT18Y8l8NqVp4mQhL-11" target="CrVIT18Y8l8NqVp4mQhL-13">
          <mxGeometry relative="1" as="geometry" />
        </mxCell>
        <mxCell id="CrVIT18Y8l8NqVp4mQhL-11" value="ChatController" style="rounded=0;whiteSpace=wrap;html=1;" vertex="1" parent="CrVIT18Y8l8NqVp4mQhL-9">
          <mxGeometry x="10" y="74" width="110" height="67.5" as="geometry" />
        </mxCell>
        <mxCell id="CrVIT18Y8l8NqVp4mQhL-12" style="edgeStyle=orthogonalEdgeStyle;rounded=0;orthogonalLoop=1;jettySize=auto;html=1;exitX=1;exitY=0.5;exitDx=0;exitDy=0;entryX=0;entryY=0.5;entryDx=0;entryDy=0;" edge="1" parent="CrVIT18Y8l8NqVp4mQhL-9" source="CrVIT18Y8l8NqVp4mQhL-13" target="CrVIT18Y8l8NqVp4mQhL-14">
          <mxGeometry relative="1" as="geometry" />
        </mxCell>
        <mxCell id="CrVIT18Y8l8NqVp4mQhL-13" value="ChatService" style="rounded=0;whiteSpace=wrap;html=1;" vertex="1" parent="CrVIT18Y8l8NqVp4mQhL-9">
          <mxGeometry x="140" y="74" width="110" height="67.5" as="geometry" />
        </mxCell>
        <mxCell id="CrVIT18Y8l8NqVp4mQhL-14" value="Producer" style="rounded=0;whiteSpace=wrap;html=1;" vertex="1" parent="CrVIT18Y8l8NqVp4mQhL-9">
          <mxGeometry x="270" y="74" width="110" height="67.5" as="geometry" />
        </mxCell>
        <mxCell id="CrVIT18Y8l8NqVp4mQhL-15" style="edgeStyle=orthogonalEdgeStyle;rounded=0;orthogonalLoop=1;jettySize=auto;html=1;exitX=1;exitY=0.5;exitDx=0;exitDy=0;entryX=0;entryY=0.5;entryDx=0;entryDy=0;" edge="1" parent="1" source="CrVIT18Y8l8NqVp4mQhL-14" target="CrVIT18Y8l8NqVp4mQhL-7">
          <mxGeometry relative="1" as="geometry" />
        </mxCell>
        <mxCell id="CrVIT18Y8l8NqVp4mQhL-16" value="Publish" style="edgeLabel;html=1;align=center;verticalAlign=middle;resizable=0;points=[];" vertex="1" connectable="0" parent="CrVIT18Y8l8NqVp4mQhL-15">
          <mxGeometry x="-0.5238" y="1" relative="1" as="geometry">
            <mxPoint x="9" y="-9" as="offset" />
          </mxGeometry>
        </mxCell>
        <mxCell id="CrVIT18Y8l8NqVp4mQhL-17" value="Spring App" style="swimlane;whiteSpace=wrap;html=1;" vertex="1" parent="1">
          <mxGeometry x="1050" y="472" width="150" height="200" as="geometry" />
        </mxCell>
        <mxCell id="CrVIT18Y8l8NqVp4mQhL-18" value="ChatListener" style="rounded=0;whiteSpace=wrap;html=1;" vertex="1" parent="CrVIT18Y8l8NqVp4mQhL-17">
          <mxGeometry x="20" y="29" width="110" height="67.5" as="geometry" />
        </mxCell>
        <mxCell id="CrVIT18Y8l8NqVp4mQhL-24" value="ChatListener2" style="rounded=0;whiteSpace=wrap;html=1;" vertex="1" parent="CrVIT18Y8l8NqVp4mQhL-17">
          <mxGeometry x="20" y="114" width="110" height="67.5" as="geometry" />
        </mxCell>
        <mxCell id="CrVIT18Y8l8NqVp4mQhL-19" value="DB" style="shape=cylinder3;whiteSpace=wrap;html=1;boundedLbl=1;backgroundOutline=1;size=15;" vertex="1" parent="1">
          <mxGeometry x="1280" y="532" width="60" height="80" as="geometry" />
        </mxCell>
        <mxCell id="CrVIT18Y8l8NqVp4mQhL-20" value="Subscribe" style="rounded=0;orthogonalLoop=1;jettySize=auto;html=1;exitX=0;exitY=0.5;exitDx=0;exitDy=0;entryX=1;entryY=0.5;entryDx=0;entryDy=0;" edge="1" parent="1" source="CrVIT18Y8l8NqVp4mQhL-18" target="CrVIT18Y8l8NqVp4mQhL-7">
          <mxGeometry relative="1" as="geometry" />
        </mxCell>
        <mxCell id="CrVIT18Y8l8NqVp4mQhL-21" style="edgeStyle=orthogonalEdgeStyle;rounded=0;orthogonalLoop=1;jettySize=auto;html=1;exitX=1;exitY=0.5;exitDx=0;exitDy=0;" edge="1" parent="1" source="CrVIT18Y8l8NqVp4mQhL-18" target="CrVIT18Y8l8NqVp4mQhL-19">
          <mxGeometry relative="1" as="geometry" />
        </mxCell>
        <mxCell id="CrVIT18Y8l8NqVp4mQhL-22" value="Insert" style="edgeLabel;html=1;align=center;verticalAlign=middle;resizable=0;points=[];" vertex="1" connectable="0" parent="CrVIT18Y8l8NqVp4mQhL-21">
          <mxGeometry x="-0.3" y="4" relative="1" as="geometry">
            <mxPoint x="15" y="3" as="offset" />
          </mxGeometry>
        </mxCell>
        <mxCell id="CrVIT18Y8l8NqVp4mQhL-23" value="Partition 2" style="rounded=0;whiteSpace=wrap;html=1;" vertex="1" parent="1">
          <mxGeometry x="680" y="585" width="250" height="40" as="geometry" />
        </mxCell>
        <mxCell id="CrVIT18Y8l8NqVp4mQhL-25" style="edgeStyle=orthogonalEdgeStyle;rounded=0;orthogonalLoop=1;jettySize=auto;html=1;exitX=1;exitY=0.5;exitDx=0;exitDy=0;entryX=0;entryY=0.5;entryDx=0;entryDy=0;entryPerimeter=0;" edge="1" parent="1" source="CrVIT18Y8l8NqVp4mQhL-24" target="CrVIT18Y8l8NqVp4mQhL-19">
          <mxGeometry relative="1" as="geometry">
            <mxPoint x="1190" y="545" as="sourcePoint" />
            <mxPoint x="1290" y="582" as="targetPoint" />
          </mxGeometry>
        </mxCell>
        <mxCell id="CrVIT18Y8l8NqVp4mQhL-26" value="Insert" style="edgeLabel;html=1;align=center;verticalAlign=middle;resizable=0;points=[];" vertex="1" connectable="0" parent="CrVIT18Y8l8NqVp4mQhL-25">
          <mxGeometry x="-0.3" y="4" relative="1" as="geometry">
            <mxPoint x="15" y="3" as="offset" />
          </mxGeometry>
        </mxCell>
        <mxCell id="CrVIT18Y8l8NqVp4mQhL-27" value="Subscribe" style="rounded=0;orthogonalLoop=1;jettySize=auto;html=1;exitX=0;exitY=0.5;exitDx=0;exitDy=0;entryX=1;entryY=0.5;entryDx=0;entryDy=0;" edge="1" parent="1" source="CrVIT18Y8l8NqVp4mQhL-24" target="CrVIT18Y8l8NqVp4mQhL-23">
          <mxGeometry relative="1" as="geometry" />
        </mxCell>
        <mxCell id="CrVIT18Y8l8NqVp4mQhL-28" style="edgeStyle=orthogonalEdgeStyle;rounded=0;orthogonalLoop=1;jettySize=auto;html=1;exitX=1;exitY=0.5;exitDx=0;exitDy=0;entryX=0;entryY=0.5;entryDx=0;entryDy=0;" edge="1" parent="1" source="CrVIT18Y8l8NqVp4mQhL-14" target="CrVIT18Y8l8NqVp4mQhL-23">
          <mxGeometry relative="1" as="geometry">
            <mxPoint x="550" y="581" as="sourcePoint" />
            <mxPoint x="690" y="567" as="targetPoint" />
          </mxGeometry>
        </mxCell>
      </root>
    </mxGraphModel>
  </diagram>
</mxfile>
